PathFileType	4	(X/Y/Z)	48_2_53_p1_0-437.trc
DataRate	CameraRate	NumFrames	NumMarkers	Units	OrigDataRate	OrigDataStartFrame	OrigNumFrames
55.0	55.0	7	27	m	55.0	383	438
Frame#	Time	RHip			RKnee			RAnkle			RBigToe			RSmallToe			RHeel			LHip			LKnee			LAnkle			LBigToe			LSmallToe			LHeel			Neck			Head			Nose			RShoulder			RElbow			RWrist			RThumb			RIndex			RPinky			LShoulder			LElbow			LWrist			LThumb			LIndex			LPinky			
		X1	Y1	Z1	X2	Y2	Z2	X3	Y3	Z3	X4	Y4	Z4	X5	Y5	Z5	X6	Y6	Z6	X7	Y7	Z7	X8	Y8	Z8	X9	Y9	Z9	X10	Y10	Z10	X11	Y11	Z11	X12	Y12	Z12	X13	Y13	Z13	X14	Y14	Z14	X15	Y15	Z15	X16	Y16	Z16	X17	Y17	Z17	X18	Y18	Z18	X19	Y19	Z19	X20	Y20	Z20	X21	Y21	Z21	X22	Y22	Z22	X23	Y23	Z23	X24	Y24	Z24	X25	Y25	Z25	X26	Y26	Z26	X27	Y27	Z27	
383	6.963636363636364	0.18882378222552887	0.3880571001603772	0.6590791532145928	0.17301361971733922	0.5255978144334934	1.078891482819878	0.15879612588592687	0.6761957315216052	1.5192161473799066	0.09165354820583686	0.47807688616190847	1.554992013449262	0.16742971054122757	0.4704331007012396	1.5505207301570247	0.14206406300739588	0.790158328872003	1.5935777878958066	-0.043846647331556986	0.3993564430588352	0.6374179623037436	-0.04237053896642307	0.6151756380915289	1.0994883390125278	-0.0483742313437833	0.6729541057809011	1.4801565507374992	-0.06253555907457287	0.4677059407674119	1.522950642853782	-0.11812540181936662	0.5426779074136745	1.5427855408536615	-0.0372000054280799	0.729303592007816	1.5592763763443365	0.124686772444977	0.3620197521727366	-0.015025022714271972	0.1405699785708135	0.291966743275542	-0.26646690294133935	0.11457789652652756	0.20275144502456896	-0.12925512229177366	0.2934515384066942	0.3446593464900412	0.1357764746559485	0.3472048215561306	0.4103025164165546	0.41946830409034486	0.35065267219523555	0.4329848897440185	0.7019201483672017	0.2533094638242424	0.43220851009320255	0.8047240119230983	0.2721827645083056	0.4128891907140855	0.8233564500953676	0.3192186935733663	0.4563485675987983	0.8314306947976027	-0.06587947773111741	0.4108707765503165	0.085444238671119	-0.15659054060463976	0.4566837937403438	0.37748199780852365	-0.21476840809707168	0.47170746840448935	0.6387212740538759	-0.20777519540898962	0.4602545641802065	0.7562899798779931	-0.2349808475358477	0.45870230162347736	0.7747038561272996	-0.24656260802459487	0.5261799302149197	0.7735208775740581
384	6.9818181818181815	0.1942524713374295	0.400283147523238	0.6650464380578865	0.17337266324599304	0.5258192608587863	1.0788324234578046	0.16355889374409463	0.6771206470043479	1.5198547656393764	0.09951565495211999	0.4749932632067122	1.553534876866694	0.1727765290289956	0.4820805292738644	1.5601227321671296	0.14192675884327122	0.790371858010471	1.593123806378184	-0.04379044716186662	0.39930727234094554	0.637598217423185	-0.03911906786561514	0.6002984324314178	1.0948528713862369	-0.04843171846350236	0.6727507581755652	1.4800338083749363	-0.06254203323649228	0.46791838776926625	1.522558996897911	-0.11424569763939289	0.5281323938835119	1.536017182301725	-0.04153374269384374	0.7155310969940538	1.5519785523973915	0.12474555994265987	0.3619993931850978	-0.015072118696239324	0.14057713546194522	0.29191564306850765	-0.2664605206705576	0.11448321365642018	0.20251261222277733	-0.12911463577978002	0.2934072173926091	0.3446686590226982	0.13235779881528417	0.3520440388102991	0.4115911861934524	0.4194534300151865	0.3501943086984599	0.43221255289729615	0.6940348756767332	0.2571864067128412	0.4315400159303567	0.8041696525570559	0.2744540040044729	0.3984514242869865	0.8164405958970352	0.3208701469219458	0.4423518727265607	0.828025814133959	-0.06581036108384355	0.41192986805114623	0.0892022390976048	-0.15710035736722067	0.45692564839951894	0.38118999012046945	-0.21969528898040536	0.48508862329037356	0.6477053860763495	-0.21137315569846224	0.47226144631394085	0.7552673597720478	-0.24192566020827783	0.45992269102493566	0.7736654147739981	-0.24757780073493427	0.5257062762121033	0.7806939115400188
385	7.0	0.19423714738598563	0.40030139771127793	0.6651743536055352	0.17342229981009835	0.5260890505190338	1.0790828809506807	0.16349929668942226	0.6769595896744312	1.5197870419217085	0.09957733166805063	0.4749974291368572	1.5534665353394215	0.1727850209446244	0.4819388181525308	1.559980339170063	0.1417226686286364	0.7898198008744003	1.5926879668418674	-0.0437882358134553	0.3993161939061173	0.6376485896692097	-0.03910481676128937	0.6001003448339516	1.0948075228505671	-0.049752755758838106	0.6733938374108437	1.4844528967173196	-0.06630988851743097	0.4545288709075454	1.5160799507380622	-0.11815108439083735	0.5425251808259526	1.5425915714781573	-0.040792382775436196	0.7176663745027334	1.5573852494083449	0.12469980580507141	0.36197951664671824	-0.015032553884902846	0.1405869288442541	0.2918780706631087	-0.26658301827815417	0.11440947281976874	0.20232438746392578	-0.128996317205194	0.28825429740937897	0.33418126470713766	0.1321740659262601	0.3523589651412632	0.41154196779543506	0.41573596081786746	0.350374517519831	0.4321574823420059	0.6936551606729568	0.26124357473431736	0.43077254506357954	0.8004445484093097	0.27942603498942353	0.4001095666741069	0.8166169167298685	0.32129871200161386	0.4432592052039026	0.8242223413595527	-0.0659774334105793	0.41082283194024927	0.08569136708837531	-0.15685420761092272	0.4579312277984982	0.3812829162880867	-0.21913168848100917	0.48524461434968214	0.6406787624898859	-0.21992485310014886	0.48596157528800216	0.7573180445359375	-0.2623574124070823	0.5135167373975472	0.7826002845383389	-0.2552580572525765	0.5106752176472685	0.7770212039172605
386	7.0181818181818185	0.19484986277292313	0.40186855329901283	0.668935249236532	0.17361539115837743	0.5258490141879256	1.078447649117035	0.16358896704144466	0.6770515535929066	1.5197560997730901	0.09943157109488111	0.4749009436273501	1.5539249955428738	0.17259964377967538	0.48293910668347084	1.556720810110005	0.14201102315515474	0.7908318130634322	1.589248666560488	-0.04378898479726803	0.39949731463897864	0.6377527829021008	-0.03913266332155803	0.6001413441059416	1.0947015736210384	-0.048445924782888075	0.6730337642890305	1.4799611331255809	-0.06255599958319684	0.4679503315641839	1.5226900378772061	-0.11815136812468667	0.5426663966017887	1.5426739551229787	-0.03706702250491645	0.729673071878363	1.5582715568278405	0.12470246372326006	0.3620340763453174	-0.015080994472973798	0.14256814085184608	0.2806200027469494	-0.2649348329347977	0.11437124478054463	0.20240742844871995	-0.128848165613084	0.29338600461234626	0.34473450914235715	0.13229264242847683	0.3524941689946393	0.41189125170209384	0.41566597016988244	0.3546501715911134	0.4319637318615492	0.6934729601636885	0.26411119237213343	0.4170594149004933	0.7966497146601418	0.2794709968991693	0.4006901299195576	0.8202089933419607	0.321381559750802	0.4407861345577983	0.8238002689811581	-0.06604998909429301	0.4106499747484933	0.08567501353168673	-0.15698345243186623	0.4575725690019363	0.3851334122647009	-0.21933950771923405	0.4854196957929591	0.6405796922600271	-0.22074391231953266	0.48660334253951093	0.7598273054632098	-0.2655178615742822	0.5246568749213949	0.7846466318999666	-0.26219711703850473	0.5106976849193527	0.7701690134403385
387	7.036363636363636	0.18934511350911334	0.3894358049064881	0.6630737824955774	0.17449843405046284	0.5251240088006841	1.074320194648404	0.16360814929054882	0.6770091786643341	1.519768131974134	0.09950023123861018	0.47588798193744297	1.5503815663284946	0.1725901750951104	0.4830024146246178	1.5568078129809109	0.14197727832386978	0.7909885176222532	1.5891425206154541	-0.04336200791524786	0.40073750171510897	0.6417165237121506	-0.03823241182074074	0.599873069727848	1.090984596969532	-0.04844592928122141	0.6728803900527237	1.479969963884183	-0.06258082530948007	0.4680142021951795	1.5227501296708383	-0.11820029781944585	0.542663910861224	1.542696860696541	-0.036980702267509616	0.7297582528422693	1.5580525338699218	0.12469332032489294	0.36217929861933235	-0.01157024949051115	0.1425970846792575	0.27999622500596566	-0.26212157492293225	0.11431396642072549	0.20240780035871886	-0.1286762397068652	0.2882247036002005	0.33403663552057955	0.13215986329369606	0.3522091901366779	0.41181881967732864	0.4157261761632602	0.3547770710771579	0.4321861478898911	0.6934675639996875	0.2640818366824112	0.4174316688217391	0.7970725907494752	0.28112595694139003	0.3866191949801571	0.8170431364216314	0.3214984413155177	0.43974301166705876	0.8237037622408743	-0.06603511744059436	0.41066359179731005	0.08565128194221441	-0.15755224450334865	0.4556073438704639	0.38133965764333105	-0.23098466776990315	0.48538436632927245	0.6400105121264663	-0.22084398305891603	0.48537864960919774	0.7524153965044376	-0.27706416570778286	0.5236076909348936	0.7812333033722961	-0.26298642405996275	0.5381557200087347	0.7773641884065102
388	7.054545454545455	0.18941004549150445	0.3894170680190847	0.6630557438102173	0.1743231855049954	0.5251866273200219	1.074454003148387	0.16358596163115932	0.6771085823094981	1.5198061094018778	0.0995844538878568	0.47584992233700857	1.5504065559241431	0.17263265851208703	0.48300843972337204	1.55682137096013	0.1418749212336708	0.7911145491908047	1.5889767521162992	-0.04339787215649102	0.4005872750199336	0.6454305000834206	-0.03907180544261202	0.6000792400934206	1.0946984735903171	-0.04846649057384588	0.6728124018085924	1.4800616480971767	-0.06252351745340486	0.46803932976490886	1.5226389988364657	-0.11856010146919402	0.5286003808872021	1.5360427934065461	-0.04155463511064387	0.7156484864161937	1.5519375951456316	0.12471223565052761	0.3623581914796675	-0.011526259758265881	0.14265221872451778	0.28050439730193893	-0.26498429020837083	0.11419750493025799	0.20234085091232784	-0.12853413669913677	0.28821254461585544	0.3340851490365668	0.13212457897400398	0.35241729309852005	0.41182599128288644	0.41569251628798354	0.3550231387228951	0.4321676917201015	0.6932473826109955	0.2663938514216921	0.4024809606802008	0.7972546002325759	0.2877386575840601	0.38249517052057774	0.8204295923814295	0.32117206215061317	0.4395172624345089	0.8238196104844573	-0.06601099179042498	0.4106388770667173	0.08556150850449076	-0.15780794430142345	0.45509588610318125	0.37739539429304464	-0.2351998865968372	0.4992467140086139	0.6423047262708828	-0.2220518085150496	0.48727431026214957	0.7625439616364529	-0.27832372171702024	0.5240258224310778	0.7859270651072677	-0.26855976709809687	0.5393185185792786	0.7773724518773781
389	7.072727272727272	0.19419303277952812	0.40024207469246736	0.6652471242679295	0.17336649896578846	0.5255751642645423	1.0784358327181778	0.16356478738037197	0.6770467502921753	1.5198412593206454	0.09947405644923496	0.4758816206745469	1.5509384578053107	0.17233892275169688	0.48279113329692447	1.5573112093572121	0.14193798152711284	0.7913648585199764	1.589176159984023	-0.043786842308537	0.3989923494713987	0.6413472975750072	-0.03909837655156027	0.5998290115765368	1.0945479989244977	-0.04847486359335534	0.6725827804801161	1.479943599439256	-0.06253384623215438	0.4679536833106625	1.5226752949874431	-0.11855067963150855	0.5284617469579067	1.5360203219912938	-0.04152145480298776	0.7154804306968992	1.5514367168971306	0.12487356359768954	0.36339457720996954	-0.008135342210957056	0.14266641092919694	0.2805238412194614	-0.2649858588522471	0.1141279916919854	0.20230991153615682	-0.12848169583247473	0.2881974058814809	0.3341057904624953	0.13205735607455887	0.35234783088260885	0.41164918711009635	0.4156416331186784	0.3551333111758832	0.4320075524340614	0.6931967034203378	0.277743956418792	0.3991257705249421	0.8003851396643626	0.28793535128427455	0.3825110559851516	0.8207145995286187	0.32120158237724106	0.43960428932025775	0.8241381207899914	-0.0698736962676384	0.3997350781426512	0.08562973666525459	-0.16215371473380538	0.4528847615723675	0.3770507037859202	-0.23524473497071394	0.49892456485032394	0.6423790213980606	-0.2305035936622747	0.5006483771237173	0.7647334347675895	-0.28626400932119384	0.5083579108675685	0.7819621324423338	-0.27290820494956186	0.5255993120690672	0.7779773662620795
